<?xml version="1.0" encoding="utf-8"?>
<!-- Generator: Adobe Illustrator 21.0.2, SVG Export Plug-In . SVG Version: 6.00 Build 0)  -->
<!DOCTYPE svg PUBLIC "-//W3C//DTD SVG 1.1//EN" "http://www.w3.org/Graphics/SVG/1.1/DTD/svg11.dtd">
<svg version="1.1" id="Layer_1" xmlns="http://www.w3.org/2000/svg" xmlns:xlink="http://www.w3.org/1999/xlink" x="0px" y="0px"
	 viewBox="0 0 396.6 396.6" style="enable-background:new 0 0 396.6 396.6;" xml:space="preserve">
<style type="text/css">
	.st0{enable-background:new    ;}
	.st1{fill:#FFFFFF;}
</style>
<title>nomore</title>
<g class="st0">
	<path class="st1" d="M220.6,9.8l-2.4,15.4L234.4,12l17.8,2.8l-18.6,13.1l14,28.4L230,53.5l-8.4-17.3l-5.8,4.1L214.1,51l-13.6-2.1
		l6.4-41.2L220.6,9.8z"/>
</g>
<g class="st0">
	<path class="st1" d="M266.6,19.8l10.9,5.8l4.7,18.4c1.4,5.2,1.6,6.4,2.4,11.2c2.5-5.2,3.4-7,6-11.9l4.4-8.3l13,6.9l-19.6,36.8
		l-10.9-5.8l-5.4-22.4c-0.7-3.2-0.9-4.3-1.5-7.3c-3.2,6.4-4,7.8-6.4,12.6l-4.2,7.8l-13-6.9L266.6,19.8z"/>
</g>
<g class="st0">
	<path class="st1" d="M349.6,84.5c3.4,9.7-0.9,18-6.3,22.8c-2.9,2.6-6.6,4.5-10.5,5.2c-2.5,0.5-5,0.5-7.5,0
		c-7.1-1.3-12.4-5.6-17.4-11.3c-9.6-10.9-9.7-18.7-8.6-23.8c1-4.6,3.2-8.1,6.8-11.3c3.5-3.1,7.7-5.2,12.3-5.8
		c10.1-1.1,17.6,5.4,22.6,10.9C344.7,75.1,347.9,79.6,349.6,84.5z M316.8,77.3c-4.8,4.3-7.5,11.3-1.5,18c1.4,1.5,2.9,3,4.9,3.7
		c4.8,1.9,9.9-0.5,13-3.2c3.4-3,8.4-10.1,1.7-17.8C328.7,70.9,321.1,73.5,316.8,77.3z"/>
</g>
<g class="st0">
	<path class="st1" d="M366.5,104.7l4.8,13.8l-17.6,9.8c-3.1,1.8-4,2.3-6.7,3.6c2.6-0.5,3.2-0.6,6.2-1l21.6-2.3l5,14.4l-10.3,6.3
		c-6.6,4.2-7.9,5-13.5,8c2.3-0.5,3-0.6,5.1-1l22-3.7l4.8,13.7l-42.6,4.3l-5.3-15.1l16.1-10.7c3.3-2.2,4.3-2.8,8-4.7
		c-3.6,0.8-4.7,1-9.3,1.4l-19.1,1.6l-5.3-15.2L366.5,104.7z"/>
</g>
<g class="st0">
	<path class="st1" d="M389.9,211.3l-4.4,19.3l-28.9,4.2l24.2,16.3l-4.4,19.2l-40.6-9.3l3.3-14.4l26,6l-23.8-15.6l2.6-11.2l28.1-3.6
		l-25.9-5.9l3.3-14.3L389.9,211.3z"/>
</g>
<g class="st0">
	<path class="st1" d="M342.4,321.3c-8.8,5.4-17.9,3-23.6-1.2c-3.2-2.3-5.8-5.4-7.4-9.1c-1-2.3-1.6-4.8-1.6-7.3
		c-0.3-7.2,2.8-13.3,7.3-19.4c8.6-11.8,16.2-13.6,21.4-13.6c4.7-0.1,8.6,1.4,12.5,4.2c3.8,2.8,6.8,6.4,8.3,10.8
		c3.2,9.6-1.5,18.4-5.8,24.5C350.5,314.4,346.8,318.6,342.4,321.3z M342.3,287.6c-5.2-3.8-12.7-4.9-18,2.4c-1.2,1.7-2.3,3.5-2.6,5.6
		c-0.9,5.1,2.6,9.6,6,12.1c3.7,2.7,11.7,6,17.8-2.2C351.1,297.9,346.9,291,342.3,287.6z"/>
</g>
<g class="st0">
	<path class="st1" d="M322.5,343.4l-25.4,17.1c-3.1,2-6.8,4.4-11.1,4.3c-3.8-0.2-7.6-2.6-10-6c-1.6-2.4-2.5-5.4-2.2-8
		c0.4-3.7,2.4-5.7,3.6-7.1l-17.9-8l13.7-9.2l15.6,7.8l6.6-4.4l-8.5-12.6l12.4-8.3L322.5,343.4z M300.6,337.5l-9.3,6.3
		c-1.9,1.3-5,3.4-2.9,6.5c0.5,0.8,1.3,1.5,2.4,1.6c1.6,0.2,2.9-0.5,3.8-1.2l10.3-6.9L300.6,337.5z"/>
</g>
<g class="st0">
	<path class="st1" d="M226.3,387l-2.4-9l27.8-7.5l-1.8-6.5l-25.7,7l-2.5-9.1l25.8-7l-1.7-6.3l-28.4,7.7l-2.5-9.1l42.7-11.6l10.8,40
		L226.3,387z"/>
</g>
<g class="st0">
	<path class="st1" d="M172.7,386.3l-11-1.4l21.4-39.3l10.9,1.4L172.7,386.3z"/>
</g>
<g class="st0">
	<path class="st1" d="M122.1,373.6l-10.6-6.3l-3.9-18.6c-1.1-5.3-1.3-6.5-1.9-11.3c-2.7,5-3.7,6.8-6.5,11.6l-4.8,8.1l-12.7-7.5
		l21.2-35.9l10.7,6.3l4.4,22.6c0.6,3.2,0.7,4.3,1.2,7.3c3.5-6.3,4.3-7.7,7-12.3l4.5-7.6l12.7,7.5L122.1,373.6z"/>
</g>
<g class="st0">
	<path class="st1" d="M41.9,305.3c-3-9.9,1.7-18,7.3-22.5c3-2.5,6.8-4.2,10.7-4.8c2.5-0.4,5-0.3,7.5,0.3c7.1,1.6,12.1,6.2,16.9,12.1
		c9.1,11.3,8.9,19.2,7.6,24.2c-1.2,4.6-3.6,8-7.3,11c-3.6,2.9-8,4.9-12.6,5.2c-10.1,0.6-17.4-6.2-22.2-11.9
		C46.5,315,43.4,310.3,41.9,305.3z M74.6,314c5-4.1,8-11,2.3-18c-1.3-1.6-2.8-3.1-4.7-4c-4.7-2.1-9.9,0-13.2,2.7
		c-3.5,2.9-8.8,9.7-2.5,17.7C62.3,319.8,70.1,317.6,74.6,314z"/>
</g>
<g class="st0">
	<path class="st1" d="M14.2,253.1l-2.6-19.6l25.6-13.9l-28.3-6.9l-2.6-19.5l41.3-5.4l1.9,14.6l-26.4,3.5l27.7,6.3l1.5,11.4
		l-25.1,13.1l26.3-3.4l1.9,14.5L14.2,253.1z"/>
</g>
<g class="st0">
	<path class="st1" d="M20.4,133.5c6.3-8.2,15.6-9.1,22.5-7.2c3.8,1,7.4,3,10.1,5.9c1.8,1.8,3.1,3.9,4.1,6.3c2.8,6.7,2,13.4,0,20.7
		c-3.9,14-10.4,18.4-15.3,20.2c-4.4,1.7-8.6,1.7-13.2,0.4c-4.5-1.2-8.6-3.6-11.5-7.2c-6.4-7.8-5.1-17.8-3.2-24.9
		C15.2,142.8,17.2,137.6,20.4,133.5z M32.3,165c6.2,1.7,13.6,0.1,16-8.6c0.6-2,0.9-4.1,0.5-6.1c-1-5-5.8-8-9.8-9.2
		c-4.4-1.2-13-1.5-15.8,8.3C20.4,158.5,26.7,163.5,32.3,165z"/>
</g>
<g class="st0">
	<path class="st1" d="M31.3,105.9l17.8-24.8c2.2-2.9,4.8-6.5,8.9-7.9c3.6-1.1,8-0.3,11.4,2.2c2.4,1.7,4.2,4.2,4.9,6.7
		c0.9,3.6-0.2,6.2-0.9,7.9l19.5,1.2l-9.6,13.4L66,102.8l-4.6,6.5l12.3,8.8L65,130.1L31.3,105.9z M53.8,103.7l6.5-9.1
		c1.3-1.9,3.5-5,0.5-7.1C60,87,59,86.7,58,86.9c-1.5,0.3-2.5,1.5-3.2,2.4l-7.2,10L53.8,103.7z"/>
</g>
<g class="st0">
	<path class="st1" d="M106.1,31l5.5,7.6L88.1,55.5l4,5.5l21.7-15.7l5.5,7.7L97.5,68.7l3.9,5.4l24-17.3l5.5,7.7l-36.1,26L70.5,56.6
		L106.1,31z"/>
</g>
<g class="st0">
	<path class="st1" d="M156.7,13.2l10.8-2.5L161.1,55l-10.7,2.5L156.7,13.2z"/>
</g>
</svg>
