<svg id="Layer_1" data-name="Layer 1" xmlns="http://www.w3.org/2000/svg" viewBox="0 0 396.63 396.63"><defs><style>.cls-1{font-size:59px;fill:#fff;font-family:AkzidenzGroteskBE-BoldEx, Berthold Akzidenz Grotesk;font-weight:700;}</style></defs><title>nomore</title><text class="cls-1" transform="translate(196.98 48.31) rotate(8.84)">K</text><text class="cls-1" transform="translate(243.85 54.87) rotate(28.01)">N</text><text class="cls-1" transform="translate(289.79 78.3) rotate(48.57)">O</text><text class="cls-1" transform="translate(327.46 119.2) rotate(70.69)">W</text><text class="cls-1" transform="translate(345.37 178.16) rotate(86.52)"> </text><text class="cls-1" transform="translate(350.13 198.51) rotate(102.89)">M</text><text class="cls-1" transform="matrix(-0.59, 0.81, -0.81, -0.59, 335.44, 261.42)">O</text><text class="cls-1" transform="translate(302.19 306.85) rotate(146.1)">R</text><text class="cls-1" transform="matrix(-0.96, 0.26, -0.26, -0.96, 261.01, 334.68)">E</text><text class="cls-1" transform="translate(214.95 345.81) rotate(177.88)"> </text><text class="cls-1" transform="translate(193.84 346.92) rotate(-172.89)">/</text><text class="cls-1" transform="translate(166.88 343.4) rotate(-163.52)"> </text><text class="cls-1" transform="translate(146.47 339.61) rotate(-149.44)">N</text><text class="cls-1" transform="matrix(-0.63, -0.78, 0.78, -0.63, 101.63, 314.17)">O</text><text class="cls-1" transform="translate(67.56 268.59) rotate(-114.01)"> </text><text class="cls-1" transform="translate(55.96 251.21) rotate(-97.45)">M</text><text class="cls-1" transform="translate(47.81 187.08) rotate(-74.49)">O</text><text class="cls-1" transform="matrix(0.58, -0.81, 0.81, 0.58, 63.03, 132.92)">R</text><text class="cls-1" transform="translate(91.98 92.5) rotate(-35.76)">E</text><text class="cls-1" transform="matrix(0.92, -0.38, 0.38, 0.92, 131.2, 65.91)"> </text><text class="cls-1" transform="translate(150.55 57.48) rotate(-13.23)">/</text></svg>